<svg xmlns="http://www.w3.org/2000/svg" width="1800" height="620" viewBox="0 0 1800 620">
  <defs>
    <linearGradient id="g" x1="0" y1="0" x2="1" y2="0"><stop stop-color="#fff1cc"/><stop offset="0.55" stop-color="#f5b1a8"/><stop offset="1" stop-color="#f9d56c"/></linearGradient>
    <filter id="shadow" x="-20%" y="-20%" width="140%" height="140%"><feDropShadow dx="0" dy="18" stdDeviation="22" flood-color="#000" flood-opacity="0.12"/></filter>
    <radialGradient id="shine" cx="50%" cy="35%" r="60%"><stop stop-color="#fff" stop-opacity="0.78"/><stop offset="1" stop-color="#fff" stop-opacity="0"/></radialGradient>
  </defs>
  <rect width="1800" height="620" fill="url(#g)"/>
  <circle cx="1410" cy="120" r="130" fill="url(#shine)" opacity="0.7"/>
  <circle cx="1590" cy="420" r="170" fill="#fff" opacity="0.16"/>
  <circle cx="1170" cy="470" r="95" fill="#fff" opacity="0.12"/>
  <g filter="url(#shadow)">
    <rect x="1040" y="168" width="118" height="310" rx="22" fill="#fff" opacity="0.94"/>
    <rect x="1072" y="112" width="54" height="74" rx="10" fill="#d6a100"/>
    <rect x="1070" y="242" width="60" height="155" rx="12" fill="#f9d56c" opacity="0.82"/>
    <rect x="1225" y="200" width="170" height="280" rx="34" fill="#fff" opacity="0.95"/>
    <rect x="1248" y="148" width="124" height="72" rx="16" fill="#fff" opacity="0.9"/>
    <ellipse cx="1310" cy="322" rx="72" ry="36" fill="#f9d56c" opacity="0.55"/>
    <rect x="1470" y="152" width="92" height="326" rx="18" fill="#fff" opacity="0.92"/>
    <rect x="1492" y="102" width="48" height="70" rx="10" fill="#d6a100" opacity="0.82"/>
    <rect x="1500" y="255" width="34" height="150" rx="14" fill="#f9d56c" opacity="0.65"/>
  </g>
  <g opacity="0.45">
    <ellipse cx="980" cy="420" rx="62" ry="22" fill="#fff"/>
    <ellipse cx="1608" cy="184" rx="70" ry="24" fill="#fff"/>
  </g>
  <text x="170" y="250" font-family="Montserrat, Arial, sans-serif" font-size="48" font-weight="900" letter-spacing="2" fill="#2d2946">Daily Sun Glow</text>
  <rect x="172" y="287" width="60" height="3" fill="#2d2946"/>
  <text x="170" y="342" font-family="Montserrat, Arial, sans-serif" font-size="24" fill="#51485c">weightless SPF comfort</text>
</svg>